<?xml version="1.0" standalone="no"?>
<!DOCTYPE svg PUBLIC "-//W3C//DTD SVG 20010904//EN"
 "http://www.w3.org/TR/2001/REC-SVG-20010904/DTD/svg10.dtd">
<svg version="1.0" xmlns="http://www.w3.org/2000/svg"
 width="700.000000pt" height="700.000000pt" viewBox="0 0 700.000000 700.000000"
 preserveAspectRatio="xMidYMid meet">
<metadata>
Created by potrace 1.11, written by Peter Selinger 2001-2013
</metadata>
<g transform="translate(0.000000,700.000000) scale(0.100000,-0.100000)"
fill="#000000" stroke="none">
<path d="M3255 6990 c-33 -4 -89 -10 -125 -14 -105 -11 -139 -16 -250 -38 -58
-11 -114 -22 -125 -24 -47 -8 -190 -49 -325 -91 -253 -81 -498 -195 -765 -356
-276 -167 -571 -417 -786 -667 -35 -41 -66 -77 -69 -80 -41 -38 -223 -296
-303 -428 -178 -292 -366 -758 -412 -1019 -3 -18 -10 -45 -16 -60 -6 -15 -10
-29 -9 -31 1 -1 -1 -15 -4 -30 -3 -15 -8 -45 -11 -67 -11 -74 -14 -100 -21
-140 -4 -22 -8 -53 -10 -70 -1 -16 -6 -66 -10 -110 -11 -105 -11 -464 -1 -585
8 -97 36 -310 42 -320 1 -3 6 -25 9 -50 4 -35 67 -292 89 -365 39 -130 197
-523 226 -560 5 -5 32 -55 61 -110 83 -157 284 -452 385 -565 12 -14 49 -54
81 -90 79 -88 238 -245 304 -300 30 -25 70 -58 88 -75 66 -58 284 -211 409
-287 137 -82 350 -191 448 -228 33 -13 65 -27 72 -32 7 -6 16 -8 20 -5 4 3 8
1403 8 3111 l-1 3106 46 1 c245 3 1082 -1 1139 -5 166 -14 375 -73 526 -149
164 -82 263 -154 400 -292 187 -189 320 -424 383 -680 34 -137 43 -216 43
-376 0 -114 -15 -239 -41 -344 -6 -22 -13 -48 -15 -59 -10 -43 -49 -146 -81
-216 -124 -264 -327 -489 -584 -645 -147 -90 -367 -172 -510 -190 -14 -2 -56
-8 -95 -13 -38 -5 -306 -10 -595 -10 -289 -1 -544 -2 -567 -2 l-42 0 37 -36
c55 -54 419 -404 478 -460 28 -27 136 -131 240 -230 104 -100 214 -205 244
-234 30 -29 149 -143 265 -254 115 -110 226 -217 246 -236 55 -53 336 -320
383 -363 23 -22 113 -107 201 -191 88 -84 176 -167 195 -185 19 -18 104 -99
189 -179 218 -208 214 -204 361 -342 73 -69 147 -140 163 -158 17 -17 35 -32
41 -32 15 0 155 93 271 179 359 267 685 623 906 989 24 40 49 81 54 90 55 89
169 333 229 487 56 144 124 366 143 464 2 14 6 28 8 31 2 4 7 22 10 41 3 19
15 84 25 144 11 61 22 142 26 180 3 39 8 79 11 90 8 38 10 470 3 565 -9 103
-18 190 -25 230 -3 14 -7 41 -10 60 -76 491 -295 1025 -600 1459 -185 264
-489 583 -710 746 -22 17 -42 32 -45 35 -3 3 -52 37 -110 76 -265 179 -543
317 -841 418 -131 44 -371 108 -453 120 -21 4 -41 8 -45 10 -3 2 -33 7 -66 11
-32 3 -62 8 -65 10 -3 1 -37 6 -77 10 -40 4 -85 9 -100 11 -48 8 -525 11 -588
4z"/>
</g>
</svg>
