<?xml version="1.0" encoding="UTF-8" standalone="no"?>
<!-- Created with Inkscape (http://www.inkscape.org/) -->

<svg
   xmlns:dc="http://purl.org/dc/elements/1.1/"
   xmlns:cc="http://creativecommons.org/ns#"
   xmlns:rdf="http://www.w3.org/1999/02/22-rdf-syntax-ns#"
   xmlns:svg="http://www.w3.org/2000/svg"
   xmlns="http://www.w3.org/2000/svg"
   version="1.1"
   width="299.95438"
   height="301.82236">
  <metadata>
    <rdf:RDF>
      <cc:Work
         rdf:about="">
        <dc:format>image/svg+xml</dc:format>
        <dc:type
           rdf:resource="http://purl.org/dc/dcmitype/StillImage" />
        <dc:title></dc:title>
      </cc:Work>
    </rdf:RDF>
  </metadata>
  <g transform="translate(-253.99777,-247.9791)">
    <path
       d="m 296.98486,149.0977 a 148.49243,149.25005 0 1 1 -296.98486,0 148.49243,149.25005 0 1 1 296.98486,0 z"
       transform="translate(256.96729,251.4537)"
       style="fill:#000000;" />
    <path
       d="m 349.79074,399.569 -8.88672,134.4101 c 19.14899,8.881 40.50301,11.3376 63,11.3376 33.7785,0 64.93658,-12.9522 90,-31.8063 z"
       style="fill:#0b68ff;" />
    <path
       d="m 364.84152,261.3228 -24.9375,15.5938 9.86656,122.7206 121.13344,58.1856 -6.46447,-178.8223 z"
       style="fill:#f1ff0b;" />
    <path
       d="m 272.97434,324.92338 c -11.87908,21.4754 -18.97657,46.6816 -18.97657,72.9609 0,63.7391 39.7875,118.191 95.875,139.875 l 0,-138.75 z"
       style="fill:#00c0fd;" />
    <path
       d="m 417.43527,464.4009 c 20.30876,19.478 42.67647,40.2856 62.1875,58.9844 43.2373,-26.2991 72.09375,-73.8808 72.09375,-128.1874 0,-33.3688 -12.06327,-66.6392 -32.75,-92.1876 21.63598,72.7125 -27.91118,148.9406 -101.53125,161.3906 z"
       style="fill:#fa3b00;" />
    <path
       d="m 349.87277,399.63428 0,-128.4995 -26.46875,0.3432 c -20.77769,12.7516 -39.0124,32.8057 -50.71875,53.9688 z"
       style="fill:#ffd001;" />
    <path
       d="m 419.93527,466.8228 c 75.04704,-11.264 122.56331,-87.3345 101.125,-161.125 -7.59555,-9.9113 -16.07885,-18.8191 -25.34375,-26.0937 -1.39295,-1.1318 -2.93863,-2.2508 -4.21875,-3.1875 -24.64977,-17.8305 -54.84443,-28.4375 -87.59375,-28.4375 -30.61468,0 -59.05456,9.2153 -82.78125,24.9687 l 28.75,0 3.0625,0 41.625,0 c 35.11644,0 63.375,28.2899 63.375,63.4063 0,35.1165 -28.25856,63.375 -63.375,63.375 l -44.59375,0 c 19.66136,18.903 39.37066,37.7539 59.0625,56.625 1.21396,1.1637 2.60962,2.5042 3.84375,3.6875 2.26852,2.1752 4.73958,4.5534 7.0625,6.7812 z"
       style="fill:#ff9809;" />
  </g>
</svg>
