<?xml version="1.0" encoding="UTF-8" standalone="no"?>
<!-- Created with Inkscape (http://www.inkscape.org/) -->

<svg
   xmlns:dc="http://purl.org/dc/elements/1.1/"
   xmlns:cc="http://creativecommons.org/ns#"
   xmlns:rdf="http://www.w3.org/1999/02/22-rdf-syntax-ns#"
   xmlns:svg="http://www.w3.org/2000/svg"
   xmlns="http://www.w3.org/2000/svg"
   xmlns:sodipodi="http://sodipodi.sourceforge.net/DTD/sodipodi-0.dtd"
   xmlns:inkscape="http://www.inkscape.org/namespaces/inkscape"
   version="1.1"
   width="297.72"
   height="297.72"
   id="svg2"
   inkscape:version="0.48.5 r10040"
   sodipodi:docname="r.svg">
  <defs
     id="defs24" />
  <sodipodi:namedview
     pagecolor="#ffffff"
     bordercolor="#666666"
     borderopacity="1"
     objecttolerance="10"
     gridtolerance="10"
     guidetolerance="10"
     inkscape:pageopacity="0"
     inkscape:pageshadow="2"
     inkscape:window-width="1916"
     inkscape:window-height="1177"
     id="namedview22"
     showgrid="false"
     fit-margin-top="0"
     fit-margin-left="0"
     fit-margin-right="0"
     fit-margin-bottom="0"
     inkscape:zoom="2"
     inkscape:cx="139.62793"
     inkscape:cy="177.82"
     inkscape:window-x="1920"
     inkscape:window-y="19"
     inkscape:window-maximized="0"
     inkscape:current-layer="svg2" />
  <metadata
     id="metadata4">
    <rdf:RDF>
      <cc:Work
         rdf:about="">
        <dc:format>image/svg+xml</dc:format>
        <dc:type
           rdf:resource="http://purl.org/dc/dcmitype/StillImage" />
        <dc:title></dc:title>
      </cc:Work>
    </rdf:RDF>
  </metadata>
  <path
     inkscape:connector-curvature="0"
     id="path14"
     style="fill:#d0ce00;fill-opacity:1"
     d="M 18.97657,76.94428 C 7.09749,98.419682 0,123.62588 0,149.90518 c 0,63.7391 39.7875,118.191 95.875,139.875 l 0,-138.75 z" />
  <path
     inkscape:connector-curvature="0"
     id="path16"
     style="fill:#bb0000;fill-opacity:1"
     d="m 163.4375,216.4218 c 20.30876,19.478 42.67647,40.2856 62.1875,58.9844 43.2373,-26.2991 72.09375,-73.8808 72.09375,-128.1874 0,-33.3688 -12.06327,-66.6392 -32.75,-92.1876 21.63598,72.7125 -27.91118,148.9406 -101.53125,161.3906 z" />
  <path
     inkscape:connector-curvature="0"
     id="path18"
     style="fill:#00a4b2;fill-opacity:1"
     d="m 95.875,151.65518 0,-128.4995 -26.46875,0.3432 c -20.77769,12.7516 -39.0124,32.8057 -50.71875,53.9688 z" />
  <path
     inkscape:connector-curvature="0"
     id="path20"
     style="fill:#d06600;fill-opacity:1"
     d="M 165.9375,218.8437 C 240.98454,207.5797 288.50081,131.5092 267.0625,57.7187 259.46695,47.8074 250.98365,38.8996 241.71875,31.625 240.3258,30.4932 238.78012,29.3742 237.5,28.4375 212.85023,10.607 182.65557,0 149.90625,0 119.29157,0 90.85169,9.2152999 67.125,24.9687 l 28.75,0 3.0625,0 41.625,0 c 35.11644,0 63.375,28.2899 63.375,63.4063 0,35.1165 -28.25856,63.375 -63.375,63.375 l -44.59375,0 c 19.66136,18.903 39.37066,37.7539 59.0625,56.625 1.21396,1.1637 2.60962,2.5042 3.84375,3.6875 2.26852,2.1752 4.73958,4.5534 7.0625,6.7812 z" />
</svg>
